<svg viewBox="0 0 198 44" xmlns="http://www.w3.org/2000/svg" xmlns:xlink="http://www.w3.org/1999/xlink" width="198.000000" height="44.000000" fill="none" customFrame="#000000">
	<path id="Интерьер." d="M3.564 9.706L8.172 9.706L8.172 27.598L21.708 9.706L26.064 9.706L26.064 34.906L21.456 34.906L21.456 17.05L7.92 34.906L3.564 34.906L3.564 9.706ZM32.6256 15.682L37.1256 15.682L37.1256 23.494L46.8096 23.494L46.8096 15.682L51.3096 15.682L51.3096 34.906L46.8096 34.906L46.8096 27.31L37.1256 27.31L37.1256 34.906L32.6256 34.906L32.6256 15.682ZM72.5684 19.498L65.8364 19.498L65.8364 34.906L61.3364 34.906L61.3364 19.498L54.5684 19.498L54.5684 15.682L72.5684 15.682L72.5684 19.498ZM92.9888 25.402C92.9888 25.714 92.9648 26.158 92.9168 26.734L77.8328 26.734C78.0968 28.15 78.7808 29.278 79.8848 30.118C81.0128 30.934 82.4048 31.342 84.0608 31.342C86.1728 31.342 87.9128 30.646 89.2808 29.254L91.6928 32.026C90.8288 33.058 89.7368 33.838 88.4168 34.366C87.0968 34.894 85.6088 35.158 83.9528 35.158C81.8408 35.158 79.9808 34.738 78.3728 33.898C76.7648 33.058 75.5168 31.894 74.6288 30.406C73.7648 28.894 73.3328 27.19 73.3328 25.294C73.3328 23.422 73.7528 21.742 74.5928 20.254C75.4568 18.742 76.6448 17.566 78.1568 16.726C79.6688 15.886 81.3728 15.466 83.2688 15.466C85.1408 15.466 86.8088 15.886 88.2728 16.726C89.7608 17.542 90.9128 18.706 91.7288 20.218C92.5688 21.706 92.9888 23.434 92.9888 25.402ZM83.2688 19.066C81.8288 19.066 80.6048 19.498 79.5968 20.362C78.6128 21.202 78.0128 22.33 77.7968 23.746L88.7048 23.746C88.5128 22.354 87.9248 21.226 86.9408 20.362C85.9568 19.498 84.7328 19.066 83.2688 19.066ZM108.567 15.466C110.439 15.466 112.107 15.874 113.571 16.69C115.059 17.506 116.223 18.658 117.063 20.146C117.903 21.634 118.323 23.35 118.323 25.294C118.323 27.238 117.903 28.966 117.063 30.478C116.223 31.966 115.059 33.118 113.571 33.934C112.107 34.75 110.439 35.158 108.567 35.158C105.975 35.158 103.923 34.294 102.411 32.566L102.411 41.89L97.9107 41.89L97.9107 15.682L102.195 15.682L102.195 18.202C102.939 17.29 103.851 16.606 104.931 16.15C106.035 15.694 107.247 15.466 108.567 15.466ZM108.063 31.306C109.719 31.306 111.075 30.754 112.131 29.65C113.211 28.546 113.751 27.094 113.751 25.294C113.751 23.494 113.211 22.042 112.131 20.938C111.075 19.834 109.719 19.282 108.063 19.282C106.983 19.282 106.011 19.534 105.147 20.038C104.283 20.518 103.599 21.214 103.095 22.126C102.591 23.038 102.339 24.094 102.339 25.294C102.339 26.494 102.591 27.55 103.095 28.462C103.599 29.374 104.283 30.082 105.147 30.586C106.011 31.066 106.983 31.306 108.063 31.306ZM132.449 22.018C134.897 22.018 136.769 22.57 138.065 23.674C139.385 24.778 140.045 26.338 140.045 28.354C140.045 30.466 139.325 32.098 137.885 33.25C136.445 34.402 134.417 34.966 131.801 34.942L122.801 34.906L122.801 15.682L127.301 15.682L127.301 21.982L132.449 22.018ZM131.405 31.63C132.725 31.654 133.733 31.378 134.429 30.802C135.125 30.226 135.473 29.386 135.473 28.282C135.473 27.202 135.137 26.41 134.465 25.906C133.793 25.402 132.773 25.138 131.405 25.114L127.301 25.078L127.301 31.594L131.405 31.63ZM162.001 25.402C162.001 25.714 161.977 26.158 161.929 26.734L146.845 26.734C147.109 28.15 147.793 29.278 148.897 30.118C150.025 30.934 151.417 31.342 153.073 31.342C155.185 31.342 156.925 30.646 158.293 29.254L160.705 32.026C159.841 33.058 158.749 33.838 157.429 34.366C156.109 34.894 154.621 35.158 152.965 35.158C150.853 35.158 148.993 34.738 147.385 33.898C145.777 33.058 144.529 31.894 143.641 30.406C142.777 28.894 142.345 27.19 142.345 25.294C142.345 23.422 142.765 21.742 143.605 20.254C144.469 18.742 145.657 17.566 147.169 16.726C148.681 15.886 150.385 15.466 152.281 15.466C154.153 15.466 155.821 15.886 157.285 16.726C158.773 17.542 159.925 18.706 160.741 20.218C161.581 21.706 162.001 23.434 162.001 25.402ZM152.281 19.066C150.841 19.066 149.617 19.498 148.609 20.362C147.625 21.202 147.025 22.33 146.809 23.746L157.717 23.746C157.525 22.354 156.937 21.226 155.953 20.362C154.969 19.498 153.745 19.066 152.281 19.066ZM177.578 15.466C179.45 15.466 181.118 15.874 182.582 16.69C184.07 17.506 185.234 18.658 186.074 20.146C186.914 21.634 187.334 23.35 187.334 25.294C187.334 27.238 186.914 28.966 186.074 30.478C185.234 31.966 184.07 33.118 182.582 33.934C181.118 34.75 179.45 35.158 177.578 35.158C174.986 35.158 172.934 34.294 171.422 32.566L171.422 41.89L166.922 41.89L166.922 15.682L171.206 15.682L171.206 18.202C171.95 17.29 172.862 16.606 173.942 16.15C175.046 15.694 176.258 15.466 177.578 15.466ZM177.074 31.306C178.73 31.306 180.086 30.754 181.142 29.65C182.222 28.546 182.762 27.094 182.762 25.294C182.762 23.494 182.222 22.042 181.142 20.938C180.086 19.834 178.73 19.282 177.074 19.282C175.994 19.282 175.022 19.534 174.158 20.038C173.294 20.518 172.61 21.214 172.106 22.126C171.602 23.038 171.35 24.094 171.35 25.294C171.35 26.494 171.602 27.55 172.106 28.462C172.61 29.374 173.294 30.082 174.158 30.586C175.022 31.066 175.994 31.306 177.074 31.306ZM192.829 35.158C192.014 35.158 191.318 34.882 190.742 34.33C190.165 33.754 189.878 33.034 189.878 32.17C189.878 31.282 190.154 30.562 190.706 30.01C191.281 29.458 191.99 29.182 192.829 29.182C193.669 29.182 194.365 29.458 194.917 30.01C195.493 30.562 195.781 31.282 195.781 32.17C195.781 33.034 195.493 33.754 194.917 34.33C194.342 34.882 193.646 35.158 192.829 35.158Z" fill="rgb(0,0,0)" fill-rule="nonzero" />
</svg>
